<svg width="1498" height="443" viewBox="0 0 1498 443" fill="none"
    xmlns="http://www.w3.org/2000/svg">
    <g filter="url(#filter0_d_8_13)">
        <g clip-path="url(#clip0_8_13)">
            <mask id="path-1-outside-1_8_13" maskUnits="userSpaceOnUse" x="10" y="67.688" width="448" height="262" fill="black">
                <rect fill="white" x="10" y="67.688" width="448" height="262"/>
                <path d="M111.936 77.8621C108.933 80.4362 106.503 83.7253 106.503 85.0124C106.503 87.0144 104.644 87.3004 94.064 87.3004L81.4824 87.1574L48.3127 121.193L15.143 155.228L15 201.561C15 243.747 15.143 247.752 17.2876 246.894C18.5743 246.322 22.4346 245.321 25.8659 244.462C32.1567 242.889 32.1567 242.889 52.3159 254.616C68.0429 263.625 72.904 265.913 73.9048 264.34C74.6197 263.339 76.1924 260.765 77.4791 258.763C79.3378 255.617 82.1972 254.33 92.0624 251.756C98.7821 250.04 105.216 248.324 106.217 248.038C110.22 246.894 107.218 244.891 96.9235 241.888C90.7756 240.029 82.6262 237.598 78.6229 236.311L71.4743 234.023L77.7651 232.879C81.1964 232.307 97.3524 230.877 113.508 229.59C129.664 228.446 146.964 227.016 151.968 226.444L160.975 225.586L157.544 234.881C155.542 239.886 152.683 246.751 150.967 249.897L147.965 255.76L140.53 253.758C134.525 252.185 132.667 252.185 131.237 253.615C130.379 254.473 124.517 263.625 118.226 273.921C112.079 284.075 103.786 297.66 99.9259 303.952L92.7772 315.393L80.7675 315.822C74.0478 316.108 65.1835 315.822 60.8943 315.393C53.3167 314.392 52.8878 314.106 34.1584 295.801C18.0024 279.928 15 277.64 15 280.643C15 283.217 20.004 288.937 34.0154 302.951L53.1738 321.828H66.6132C74.0478 321.828 83.341 322.257 87.2013 322.686L94.4929 323.544L111.507 295.229L128.663 266.771L129.092 278.927C129.378 285.648 129.95 291.511 130.665 292.226C131.237 292.798 142.246 297.374 155.256 302.379C171.412 308.672 179.276 311.103 180.42 310.102C181.42 309.387 187.139 300.663 193.144 290.796L204.01 272.777L199.578 257.619C197.147 249.325 194.145 239.314 193.001 235.596L191 228.732L194.86 231.592C197.004 233.165 201.866 237.598 205.583 241.459L212.446 248.467L209.586 253.329C207.87 256.046 206.584 258.906 206.584 259.764C206.584 261.194 236.036 282.502 240.325 284.218C241.469 284.647 243.614 283.932 245.043 282.645C247.331 280.5 248.046 280.786 255.194 287.221L262.772 294.085L259.055 300.52C256.91 304.095 255.194 307.814 255.194 308.672C255.194 310.531 282.502 324.688 286.077 324.688C287.363 324.688 307.665 314.821 331.113 302.951C362.281 286.935 374.148 280.357 374.577 278.212C375.006 276.639 375.435 267.915 375.578 258.906L376.007 242.46L366.427 239.028C357.42 235.882 354.561 233.165 358.135 231.02C358.85 230.591 364.426 229.304 370.431 228.303C378.294 226.873 381.439 226.873 381.868 228.017C383.012 231.306 386.444 256.761 385.729 257.762C385.443 258.477 383.87 258.906 382.297 258.906C378.294 258.906 377.722 261.623 379.152 273.349L380.296 283.503L408.175 294.8C423.474 300.949 437.485 305.954 439.201 306.097C441.774 306.097 442.918 303.952 447.493 290.51L452.64 274.922L443.347 247.895C438.057 233.022 433.911 219.723 433.911 218.15C433.911 216.72 436.627 208.425 439.915 199.845L445.92 184.115L439.629 178.68C436.055 175.534 432.624 173.103 432.052 173.103C431.337 173.103 428.621 174.819 425.904 176.821C423.188 178.966 420.614 180.396 420.328 179.967C419.899 179.538 414.037 163.236 407.318 143.644C400.598 124.053 394.307 107.321 393.449 106.463C391.305 104.461 328.682 77.2901 326.252 77.2901C323.25 77.2901 313.813 87.8725 313.813 91.1616C313.813 94.7367 328.968 158.088 330.97 162.664C331.685 164.523 333.544 165.953 335.259 165.953C336.832 165.953 338.119 166.382 338.119 166.954C338.119 167.669 334.973 173.246 331.256 179.538C325.108 189.692 323.821 190.979 320.39 190.55C317.674 190.264 313.527 192.409 305.235 198.272C298.944 202.848 293.797 207.281 293.797 208.282C293.797 212.715 297.371 217.578 301.518 218.722C303.948 219.294 305.807 220.581 305.664 221.439C305.092 223.727 296.514 237.455 295.656 237.455C295.227 237.455 288.221 233.88 280.215 229.59C272.065 225.3 264.917 221.725 264.202 221.725C263.487 221.725 261.914 223.298 260.913 225.3C259.77 227.302 258.197 228.732 257.482 228.589C255.051 227.874 198.863 198.701 197.433 197.271C195.575 195.555 197.576 194.125 225.599 178.108C245.901 166.382 249.476 163.808 249.476 160.948C249.476 153.369 246.187 135.922 244.471 134.492C243.471 133.777 232.462 128.629 220.023 123.052C201.58 115.043 197.147 112.612 196.576 109.895C195.718 106.463 193.859 105.176 179.133 98.7408C172.127 95.5947 169.411 93.7356 169.411 91.7336C169.411 89.5885 167.981 89.0165 161.261 88.3015C155.685 87.7295 147.679 85.1554 136.956 80.2932C128.092 76.2891 120.085 73 119.084 73C118.083 73.143 114.795 75.2881 111.936 77.8621ZM194.574 154.513C200.865 154.513 202.294 154.942 202.866 157.373C203.295 158.946 204.153 161.52 204.582 163.093C205.154 165.381 203.152 166.954 191 173.103L176.702 180.253L172.985 168.384C167.981 151.939 167.838 152.511 178.132 153.655C182.993 154.084 190.428 154.513 194.574 154.513ZM105.931 172.531C108.218 178.537 111.078 183.829 112.222 184.544C113.365 185.116 118.655 186.403 124.088 187.404C131.809 188.834 133.667 189.692 133.667 191.837C133.667 194.983 135.669 194.554 95.0648 201.704C47.7408 210.141 47.8838 210.141 47.8838 212.858C47.8838 214.146 49.4565 220.152 51.4581 226.158L55.1754 237.169L70.7594 241.173C79.4808 243.461 86.4864 245.75 86.4864 246.179C86.4864 246.751 84.3418 247.609 81.7683 248.038C78.6229 248.61 76.1924 250.326 74.6197 253.186C73.19 255.617 71.3313 257.476 70.4735 257.476C68.6148 257.476 36.5889 238.885 35.5881 237.169C34.8732 236.168 32.7286 218.15 31.8708 206.28L31.4419 200.131L66.4702 180.968C85.7716 170.386 101.642 161.806 101.642 161.663C101.785 161.663 103.643 166.525 105.931 172.531ZM377.15 193.267C377.865 198.415 377.722 198.558 372.289 199.988C369.287 200.703 366.713 200.989 366.713 200.703C366.713 199.273 372.718 179.538 373.576 178.108C374.434 176.821 375.006 179.252 377.15 193.267ZM304.806 247.609C320.39 255.617 334.115 262.91 335.259 264.054C336.975 265.77 336.975 266.342 335.259 267.915C334.115 268.916 325.394 277.068 315.815 285.791C297.228 302.951 297.514 302.808 283.36 300.949C277.641 300.091 275.068 298.375 262.2 286.649C254.194 279.213 247.188 273.206 246.616 273.206C246.044 273.206 244.471 274.493 243.042 276.066C240.611 278.784 240.468 278.784 235.75 275.065C233.034 273.063 230.889 270.632 230.889 269.488C230.889 266.342 233.748 265.77 237.466 268.201C245.901 273.635 243.185 268.773 232.462 259.049C222.883 250.469 220.738 249.039 219.88 251.184C219.308 252.9 220.309 254.759 223.454 257.333C228.316 261.337 229.03 263.053 226.457 265.627C225.17 266.914 223.311 266.342 219.308 263.625C216.163 261.623 213.732 259.335 213.732 258.477C213.732 257.762 215.019 254.902 216.735 252.328C219.022 248.61 219.308 246.894 218.164 244.748C217.307 243.175 216.592 241.745 216.592 241.459C216.592 241.173 222.597 240.744 229.888 240.601C237.037 240.458 246.759 239.6 251.334 238.742C258.483 237.455 260.341 237.741 266.203 240.315C273.781 243.604 277.212 242.46 274.067 237.455C269.635 230.305 273.495 231.592 304.806 247.609ZM182.278 237.312C187.282 238.17 187.282 238.456 192.858 254.902L198.434 271.633L188.569 288.079C183.136 297.231 178.132 304.667 177.274 304.667C176.559 304.667 166.837 301.092 155.828 296.945L135.812 289.223L134.668 275.208C133.953 266.914 134.096 260.765 134.811 260.05C135.669 259.192 138.957 259.478 143.39 260.908C151.825 263.339 151.253 263.911 158.688 248.896C166.551 233.022 164.979 233.88 182.278 237.312ZM352.845 256.332L369.573 258.048V267.772V277.497L356.705 283.932L343.695 290.367L337.261 285.076L330.684 279.642L337.404 273.778C345.124 266.914 345.267 264.054 338.691 259.621C328.539 253.186 328.397 253.043 332.4 253.758C334.401 254.187 343.552 255.331 352.845 256.332ZM439.201 256.332C440.058 257.333 442.06 261.766 443.919 266.199L447.207 274.207L443.204 286.649C441.059 293.37 438.772 299.376 438.057 299.662C437.485 300.091 425.189 295.801 410.749 289.938L384.585 279.499L384.156 272.062C383.727 264.054 385.872 262.052 389.303 267.486C392.305 272.348 393.878 270.775 392.877 263.911L392.019 257.476L404.029 257.333C413.894 257.19 425.618 256.332 436.198 254.902C437.056 254.759 438.486 255.474 439.201 256.332ZM333.115 288.937C335.402 291.225 336.975 293.513 336.546 293.799C334.401 295.801 288.078 318.968 286.077 318.968C284.79 318.968 278.642 316.394 272.351 313.248C260.198 307.098 260.341 307.384 265.06 300.377C266.203 298.661 267.061 298.804 270.064 301.664C273.924 305.239 282.359 307.241 293.94 307.384C300.374 307.527 301.089 307.098 312.955 296.087C319.675 289.795 326.109 284.647 327.11 284.647C328.111 284.647 330.827 286.506 333.115 288.937Z"/>
            </mask>
            <path d="M111.936 77.8621C108.933 80.4362 106.503 83.7253 106.503 85.0124C106.503 87.0144 104.644 87.3004 94.064 87.3004L81.4824 87.1574L48.3127 121.193L15.143 155.228L15 201.561C15 243.747 15.143 247.752 17.2876 246.894C18.5743 246.322 22.4346 245.321 25.8659 244.462C32.1567 242.889 32.1567 242.889 52.3159 254.616C68.0429 263.625 72.904 265.913 73.9048 264.34C74.6197 263.339 76.1924 260.765 77.4791 258.763C79.3378 255.617 82.1972 254.33 92.0624 251.756C98.7821 250.04 105.216 248.324 106.217 248.038C110.22 246.894 107.218 244.891 96.9235 241.888C90.7756 240.029 82.6262 237.598 78.6229 236.311L71.4743 234.023L77.7651 232.879C81.1964 232.307 97.3524 230.877 113.508 229.59C129.664 228.446 146.964 227.016 151.968 226.444L160.975 225.586L157.544 234.881C155.542 239.886 152.683 246.751 150.967 249.897L147.965 255.76L140.53 253.758C134.525 252.185 132.667 252.185 131.237 253.615C130.379 254.473 124.517 263.625 118.226 273.921C112.079 284.075 103.786 297.66 99.9259 303.952L92.7772 315.393L80.7675 315.822C74.0478 316.108 65.1835 315.822 60.8943 315.393C53.3167 314.392 52.8878 314.106 34.1584 295.801C18.0024 279.928 15 277.64 15 280.643C15 283.217 20.004 288.937 34.0154 302.951L53.1738 321.828H66.6132C74.0478 321.828 83.341 322.257 87.2013 322.686L94.4929 323.544L111.507 295.229L128.663 266.771L129.092 278.927C129.378 285.648 129.95 291.511 130.665 292.226C131.237 292.798 142.246 297.374 155.256 302.379C171.412 308.672 179.276 311.103 180.42 310.102C181.42 309.387 187.139 300.663 193.144 290.796L204.01 272.777L199.578 257.619C197.147 249.325 194.145 239.314 193.001 235.596L191 228.732L194.86 231.592C197.004 233.165 201.866 237.598 205.583 241.459L212.446 248.467L209.586 253.329C207.87 256.046 206.584 258.906 206.584 259.764C206.584 261.194 236.036 282.502 240.325 284.218C241.469 284.647 243.614 283.932 245.043 282.645C247.331 280.5 248.046 280.786 255.194 287.221L262.772 294.085L259.055 300.52C256.91 304.095 255.194 307.814 255.194 308.672C255.194 310.531 282.502 324.688 286.077 324.688C287.363 324.688 307.665 314.821 331.113 302.951C362.281 286.935 374.148 280.357 374.577 278.212C375.006 276.639 375.435 267.915 375.578 258.906L376.007 242.46L366.427 239.028C357.42 235.882 354.561 233.165 358.135 231.02C358.85 230.591 364.426 229.304 370.431 228.303C378.294 226.873 381.439 226.873 381.868 228.017C383.012 231.306 386.444 256.761 385.729 257.762C385.443 258.477 383.87 258.906 382.297 258.906C378.294 258.906 377.722 261.623 379.152 273.349L380.296 283.503L408.175 294.8C423.474 300.949 437.485 305.954 439.201 306.097C441.774 306.097 442.918 303.952 447.493 290.51L452.64 274.922L443.347 247.895C438.057 233.022 433.911 219.723 433.911 218.15C433.911 216.72 436.627 208.425 439.915 199.845L445.92 184.115L439.629 178.68C436.055 175.534 432.624 173.103 432.052 173.103C431.337 173.103 428.621 174.819 425.904 176.821C423.188 178.966 420.614 180.396 420.328 179.967C419.899 179.538 414.037 163.236 407.318 143.644C400.598 124.053 394.307 107.321 393.449 106.463C391.305 104.461 328.682 77.2901 326.252 77.2901C323.25 77.2901 313.813 87.8725 313.813 91.1616C313.813 94.7367 328.968 158.088 330.97 162.664C331.685 164.523 333.544 165.953 335.259 165.953C336.832 165.953 338.119 166.382 338.119 166.954C338.119 167.669 334.973 173.246 331.256 179.538C325.108 189.692 323.821 190.979 320.39 190.55C317.674 190.264 313.527 192.409 305.235 198.272C298.944 202.848 293.797 207.281 293.797 208.282C293.797 212.715 297.371 217.578 301.518 218.722C303.948 219.294 305.807 220.581 305.664 221.439C305.092 223.727 296.514 237.455 295.656 237.455C295.227 237.455 288.221 233.88 280.215 229.59C272.065 225.3 264.917 221.725 264.202 221.725C263.487 221.725 261.914 223.298 260.913 225.3C259.77 227.302 258.197 228.732 257.482 228.589C255.051 227.874 198.863 198.701 197.433 197.271C195.575 195.555 197.576 194.125 225.599 178.108C245.901 166.382 249.476 163.808 249.476 160.948C249.476 153.369 246.187 135.922 244.471 134.492C243.471 133.777 232.462 128.629 220.023 123.052C201.58 115.043 197.147 112.612 196.576 109.895C195.718 106.463 193.859 105.176 179.133 98.7408C172.127 95.5947 169.411 93.7356 169.411 91.7336C169.411 89.5885 167.981 89.0165 161.261 88.3015C155.685 87.7295 147.679 85.1554 136.956 80.2932C128.092 76.2891 120.085 73 119.084 73C118.083 73.143 114.795 75.2881 111.936 77.8621ZM194.574 154.513C200.865 154.513 202.294 154.942 202.866 157.373C203.295 158.946 204.153 161.52 204.582 163.093C205.154 165.381 203.152 166.954 191 173.103L176.702 180.253L172.985 168.384C167.981 151.939 167.838 152.511 178.132 153.655C182.993 154.084 190.428 154.513 194.574 154.513ZM105.931 172.531C108.218 178.537 111.078 183.829 112.222 184.544C113.365 185.116 118.655 186.403 124.088 187.404C131.809 188.834 133.667 189.692 133.667 191.837C133.667 194.983 135.669 194.554 95.0648 201.704C47.7408 210.141 47.8838 210.141 47.8838 212.858C47.8838 214.146 49.4565 220.152 51.4581 226.158L55.1754 237.169L70.7594 241.173C79.4808 243.461 86.4864 245.75 86.4864 246.179C86.4864 246.751 84.3418 247.609 81.7683 248.038C78.6229 248.61 76.1924 250.326 74.6197 253.186C73.19 255.617 71.3313 257.476 70.4735 257.476C68.6148 257.476 36.5889 238.885 35.5881 237.169C34.8732 236.168 32.7286 218.15 31.8708 206.28L31.4419 200.131L66.4702 180.968C85.7716 170.386 101.642 161.806 101.642 161.663C101.785 161.663 103.643 166.525 105.931 172.531ZM377.15 193.267C377.865 198.415 377.722 198.558 372.289 199.988C369.287 200.703 366.713 200.989 366.713 200.703C366.713 199.273 372.718 179.538 373.576 178.108C374.434 176.821 375.006 179.252 377.15 193.267ZM304.806 247.609C320.39 255.617 334.115 262.91 335.259 264.054C336.975 265.77 336.975 266.342 335.259 267.915C334.115 268.916 325.394 277.068 315.815 285.791C297.228 302.951 297.514 302.808 283.36 300.949C277.641 300.091 275.068 298.375 262.2 286.649C254.194 279.213 247.188 273.206 246.616 273.206C246.044 273.206 244.471 274.493 243.042 276.066C240.611 278.784 240.468 278.784 235.75 275.065C233.034 273.063 230.889 270.632 230.889 269.488C230.889 266.342 233.748 265.77 237.466 268.201C245.901 273.635 243.185 268.773 232.462 259.049C222.883 250.469 220.738 249.039 219.88 251.184C219.308 252.9 220.309 254.759 223.454 257.333C228.316 261.337 229.03 263.053 226.457 265.627C225.17 266.914 223.311 266.342 219.308 263.625C216.163 261.623 213.732 259.335 213.732 258.477C213.732 257.762 215.019 254.902 216.735 252.328C219.022 248.61 219.308 246.894 218.164 244.748C217.307 243.175 216.592 241.745 216.592 241.459C216.592 241.173 222.597 240.744 229.888 240.601C237.037 240.458 246.759 239.6 251.334 238.742C258.483 237.455 260.341 237.741 266.203 240.315C273.781 243.604 277.212 242.46 274.067 237.455C269.635 230.305 273.495 231.592 304.806 247.609ZM182.278 237.312C187.282 238.17 187.282 238.456 192.858 254.902L198.434 271.633L188.569 288.079C183.136 297.231 178.132 304.667 177.274 304.667C176.559 304.667 166.837 301.092 155.828 296.945L135.812 289.223L134.668 275.208C133.953 266.914 134.096 260.765 134.811 260.05C135.669 259.192 138.957 259.478 143.39 260.908C151.825 263.339 151.253 263.911 158.688 248.896C166.551 233.022 164.979 233.88 182.278 237.312ZM352.845 256.332L369.573 258.048V267.772V277.497L356.705 283.932L343.695 290.367L337.261 285.076L330.684 279.642L337.404 273.778C345.124 266.914 345.267 264.054 338.691 259.621C328.539 253.186 328.397 253.043 332.4 253.758C334.401 254.187 343.552 255.331 352.845 256.332ZM439.201 256.332C440.058 257.333 442.06 261.766 443.919 266.199L447.207 274.207L443.204 286.649C441.059 293.37 438.772 299.376 438.057 299.662C437.485 300.091 425.189 295.801 410.749 289.938L384.585 279.499L384.156 272.062C383.727 264.054 385.872 262.052 389.303 267.486C392.305 272.348 393.878 270.775 392.877 263.911L392.019 257.476L404.029 257.333C413.894 257.19 425.618 256.332 436.198 254.902C437.056 254.759 438.486 255.474 439.201 256.332ZM333.115 288.937C335.402 291.225 336.975 293.513 336.546 293.799C334.401 295.801 288.078 318.968 286.077 318.968C284.79 318.968 278.642 316.394 272.351 313.248C260.198 307.098 260.341 307.384 265.06 300.377C266.203 298.661 267.061 298.804 270.064 301.664C273.924 305.239 282.359 307.241 293.94 307.384C300.374 307.527 301.089 307.098 312.955 296.087C319.675 289.795 326.109 284.647 327.11 284.647C328.111 284.647 330.827 286.506 333.115 288.937Z" stroke="black" stroke-width="10" mask="url(#path-1-outside-1_8_13)"/>
            <mask id="path-2-outside-2_8_13" maskUnits="userSpaceOnUse" x="447.64" y="67.4492" width="1030" height="297" fill="black">
                <rect fill="white" x="447.64" y="67.4492" width="1030" height="297"/>
                <path d="M667.751 93.7378C644.733 105.035 625.146 114.33 624.145 114.33C623.287 114.33 612.993 107.609 601.126 99.315C589.402 91.0207 578.822 84.2995 577.536 84.2995C575.248 84.2995 455.151 142.073 452.72 144.361C452.005 144.933 456.152 150.797 461.728 157.232C470.449 167.099 472.736 168.815 475.596 168.243C477.598 167.957 479.313 168.386 479.599 169.244C479.885 170.102 486.033 187.835 493.039 208.571C500.187 229.449 505.763 246.61 505.334 247.039C505.048 247.325 502.618 248.04 500.044 248.612C496.47 249.47 495.469 250.328 495.755 252.473C496.613 257.192 510.481 307.959 511.625 310.247C512.769 312.392 572.96 332.985 578.25 332.985C581.968 333.128 612.707 288.081 610.705 285.507C609.99 284.506 598.982 270.205 586.114 253.76C573.246 237.171 560.951 221.441 558.806 218.581L554.803 213.433L564.096 203.136L573.532 192.983L569.958 188.264C567.956 185.833 564.382 181.4 562.095 178.683L557.805 173.677L545.51 179.684L533.214 185.833L523.349 173.248C517.916 166.384 513.913 160.378 514.342 159.949C515.342 158.948 559.807 150.082 563.667 150.082C565.526 150.082 565.812 151.083 565.097 155.373C564.239 160.092 564.525 160.521 566.956 159.52C568.385 158.948 577.25 157.375 586.4 156.088C599.41 154.372 603.843 154.229 606.416 155.516C608.275 156.374 610.848 157.089 612.135 156.803C614.28 156.517 617.139 163.667 628.148 196.129L641.73 235.884L637.87 236.742C631.007 238.172 630.293 238.744 631.007 241.176C631.436 242.606 635.011 255.619 639.014 270.205C643.16 284.792 646.877 297.662 647.449 298.806C648.593 300.951 709.071 321.687 714.075 321.544C716.219 321.544 720.937 315.681 731.66 299.807C739.667 287.795 746.244 277.07 746.244 275.783C746.244 274.639 735.378 259.909 722.224 242.892C709.071 226.017 696.489 209.858 694.344 206.997L690.341 201.849L699.777 191.696L709.214 181.4L702.351 172.676C698.634 167.957 694.773 163.81 693.915 163.381C692.915 163.095 687.053 165.383 680.619 168.529L669.181 174.392L659.173 161.808C653.74 154.944 649.737 148.938 650.166 148.366C651.167 147.365 695.488 138.641 699.491 138.641C701.35 138.641 701.636 139.642 700.921 143.789C700.063 148.652 700.206 148.938 703.352 147.937C705.21 147.365 714.361 145.791 723.797 144.361C738.523 142.216 741.382 141.358 743.67 138.498C745.958 135.495 746.53 135.352 748.102 137.354C748.96 138.498 751.677 141.644 753.821 144.361L757.824 149.081L773.837 148.08C782.702 147.651 795.14 146.793 801.717 146.221C809.295 145.648 813.441 145.934 813.441 146.793C813.441 147.651 799.858 179.112 783.274 216.722C766.689 254.475 752.534 286.794 751.82 288.51C750.676 291.513 751.677 293.086 760.112 301.81C765.259 307.244 770.692 311.677 772.122 311.677C774.695 311.677 869.057 274.925 871.059 273.066C872.203 272.065 864.482 217.151 862.766 214.434C862.338 213.576 860.622 213.004 859.192 213.004C856.905 213.004 856.476 212.146 857.048 209C857.334 206.854 858.334 197.13 859.192 187.263C861.337 162.38 861.623 161.522 865.626 161.522C867.485 161.522 869.343 162.094 869.772 162.809C870.773 164.382 893.649 252.044 893.22 252.187C888.93 253.76 886.643 257.192 882.926 267.631C880.495 274.496 878.779 280.359 879.208 280.645C879.637 281.074 896.937 289.797 917.668 300.236L955.413 319.113L964.277 310.247C978.289 296.375 978.003 298.091 969.996 272.065C963.419 250.9 961.99 247.611 945.977 220.154C936.54 203.994 928.534 190.123 928.105 189.408C927.819 188.55 939.114 199.561 953.411 213.719L979.289 239.46L983.722 237.028C988.726 234.168 987.868 232.738 992.872 252.616C997.018 269.347 997.161 271.636 994.444 271.636C992.3 271.636 983.579 292.085 983.579 296.947C983.579 298.806 993.301 304.384 1021.75 318.684L1059.93 337.847L1066.5 330.696C1070.08 326.692 1074.22 322.831 1075.8 322.116C1077.37 321.258 1093.81 314.68 1112.25 307.387C1130.7 300.236 1146.42 293.658 1147.14 293.086C1148.43 291.799 1141.71 241.891 1139.42 236.17C1138.7 234.454 1137.13 233.024 1135.84 233.024C1133.13 233.024 1133.13 228.305 1135.84 202.993C1136.99 192.411 1137.99 182.83 1137.99 181.829C1137.99 180.971 1139.28 180.113 1140.71 180.113C1143.57 180.113 1144.14 181.257 1145.85 189.694C1146.42 192.268 1147.43 194.699 1148.14 195.128C1149.28 195.843 1172.02 192.268 1189.89 188.407C1196.04 187.12 1196.61 186.691 1196.61 182.973C1196.61 179.684 1197.32 178.683 1200.9 177.968C1206.76 176.68 1208.05 177.825 1206.33 182.687C1205.19 185.69 1206.33 195.128 1212.19 228.019C1216.2 250.757 1219.48 270.348 1219.48 271.207C1219.48 272.637 1215.19 273.066 1203.04 273.066H1186.74L1183.74 283.076C1182.17 288.51 1179.59 297.662 1177.88 303.24C1175.88 310.247 1175.45 313.965 1176.45 314.966C1178.59 317.111 1301.12 360.155 1303.12 359.44C1304.12 359.011 1307.84 353.291 1311.56 346.713C1315.28 339.992 1318.85 334.558 1319.28 334.558C1319.71 334.558 1322.42 336.703 1325.28 339.42L1330.29 344.139L1382.19 331.411C1419.65 322.116 1433.94 317.969 1433.94 316.539C1433.94 313.965 1419.65 274.353 1417.79 271.922C1416.93 270.921 1412.78 270.205 1406.92 270.205C1401.77 270.205 1396.77 269.633 1395.77 269.061C1394.48 268.203 1394.91 265.057 1397.63 256.477L1401.06 244.894L1436.8 224.301C1468.4 206.139 1472.55 203.279 1472.55 200.133C1472.55 198.274 1470.26 188.693 1467.4 178.969L1462.25 161.236L1466.11 157.232L1469.97 153.228L1469.11 133.35C1468.54 122.482 1467.83 110.612 1467.4 106.751C1466.68 100.459 1466.25 100.03 1462.54 100.03C1459.68 100.03 1453.96 103.605 1442.81 112.185C1434.09 118.907 1426.51 125.056 1425.94 125.914C1425.51 126.772 1424.22 141.072 1423.22 157.661L1421.22 187.978L1407.49 201.134L1393.62 214.291L1388.33 212.146C1385.48 210.859 1375.47 206.711 1366.17 202.85C1356.88 198.989 1348.73 195.557 1348.3 195.128C1347.73 194.413 1350.88 184.26 1362.03 152.084C1362.31 151.226 1357.45 144.361 1351.3 137.068C1345.01 129.632 1339.01 121.624 1337.72 119.336C1336.58 116.905 1332.58 112.185 1329 108.753L1322.42 102.604L1312.85 105.178C1307.56 106.608 1302.12 108.896 1300.84 110.183C1299.12 111.899 1290.4 114.187 1274.96 117.191C1256.08 120.909 1251.22 122.339 1249.08 124.913L1246.51 128.059L1208.76 122.911C1187.89 120.051 1170.73 117.477 1170.44 117.048C1170.02 116.762 1168.87 114.473 1167.58 112.185C1165.58 108.038 1164.44 107.609 1142.14 102.747L1118.97 97.4559L1115.83 100.888L1112.83 104.177L1082.94 99.887L1053.06 95.4539L1050.92 98.6C1049.63 100.173 1042.48 113.472 1035.05 127.916L1021.61 154.229L1027.33 161.093L1033.19 167.957H1043.06C1048.49 167.957 1061.36 167.385 1071.79 166.813L1090.67 165.669L1079.23 191.839C1072.94 206.282 1065.07 224.301 1061.78 231.88C1058.5 239.603 1055.49 245.895 1054.92 245.895C1054.49 245.895 1044.06 228.448 1031.47 206.997L1008.88 168.1L1013.32 164.382C1015.89 162.237 1017.89 159.52 1017.89 158.09C1017.89 154.658 1003.88 91.5928 1002.31 87.7316C1001.31 85.4436 999.306 84.5855 993.444 83.8705C989.154 83.2985 985.151 83.5845 984.436 84.2995C983.722 85.0145 977.145 99.601 969.853 116.476L956.843 147.222L960.703 163.81C964.706 180.685 965.993 182.973 971.712 182.973C973.999 182.973 975.286 184.117 975.858 186.548C976.43 188.55 976.573 190.552 976.287 190.838C975.715 191.267 916.953 148.509 914.809 146.078C914.237 145.505 912.092 131.92 910.09 115.761C907.946 99.601 905.372 85.7296 904.515 84.7285C903.514 83.8705 899.368 82.1544 895.364 80.8674L887.787 78.7223L884.355 83.2985C882.497 85.8726 879.208 90.5917 877.064 93.8808C872.632 100.888 871.774 101.031 855.618 98.028C843.608 95.8829 842.035 95.1679 842.035 91.0207C842.035 89.3047 841.464 87.1596 840.892 86.1586C839.748 84.2995 778.412 75.1472 776.125 76.5773C775.41 77.0063 771.836 83.0125 768.404 90.0197C764.973 97.0269 761.542 103.033 760.97 103.319C760.398 103.748 749.818 97.0269 737.665 88.4467C725.512 79.8664 714.218 72.8592 712.645 73.0022C711.072 73.0022 690.913 82.4405 667.751 93.7378ZM1308.98 180.971C1308.56 185.404 1307.7 193.698 1307.27 199.275L1306.55 209.429L1330.29 225.159C1343.44 233.739 1354.59 241.605 1354.88 242.606C1355.31 243.607 1348.02 256.334 1338.72 271.064C1323.43 295.231 1321.71 297.376 1319.85 294.945C1318.85 293.515 1301.26 268.346 1280.68 239.03C1245.5 188.55 1243.5 185.404 1244.36 180.828L1245.36 175.822L1260.66 175.679C1273.96 175.536 1304.98 173.963 1308.7 173.248C1309.41 173.105 1309.56 176.537 1308.98 180.971ZM1046.63 243.607C1060.78 267.488 1062.36 270.921 1068.65 291.37L1075.51 313.393L1066.65 322.116L1057.78 330.982L1024.18 313.822C1005.74 304.384 990.298 296.232 989.869 295.803C989.583 295.231 990.727 290.941 992.443 286.079C995.731 276.784 998.591 275.068 1001.88 280.216C1006.31 287.366 1005.74 281.217 999.877 258.765C993.587 234.454 992.586 228.734 994.73 228.734C995.445 228.734 998.305 226.589 1001.02 223.872C1006.31 218.724 1009.46 218.009 1025.61 218.009H1031.19L1046.63 243.607ZM1380.19 218.438L1388.48 218.724L1386.19 222.299C1383.9 225.731 1383.04 230.164 1384.76 230.164C1385.19 230.164 1388.62 227.59 1392.48 224.301L1399.34 218.438L1414.93 219.439C1423.36 220.011 1430.51 220.583 1430.65 220.726C1431.08 221.155 1407.78 235.598 1404.78 236.742C1402.49 237.6 1402.2 237.314 1402.77 234.025C1403.49 230.307 1401.92 226.017 1400.34 227.59C1399.92 228.019 1398.34 233.31 1396.91 239.317C1395.48 245.323 1393.91 250.614 1393.48 251.186C1392.2 252.33 1359.45 257.478 1356.31 257.049C1354.16 256.62 1355.02 254.618 1361.6 244.608C1366.03 237.886 1369.61 232.023 1369.61 231.451C1369.61 228.305 1366.46 229.163 1363.74 233.024C1361.88 235.312 1359.88 237.314 1359.17 237.314C1358.45 237.314 1352.02 233.31 1344.87 228.305L1331.86 219.439L1336.72 218.724C1341.44 218.009 1361.46 218.009 1380.19 218.438ZM991.299 223.157C989.869 224.873 986.724 227.447 984.579 229.02L980.576 231.88L976.859 228.591C968.852 221.012 969.424 220.154 982.292 220.154H994.016L991.299 223.157ZM848.755 236.17L847.897 250.9L852.472 236.599C855.046 228.734 857.476 222.871 858.048 223.729C858.477 224.444 860.05 231.88 861.337 240.175C862.624 248.469 864.196 258.193 864.768 262.054C865.483 265.772 865.483 269.204 864.911 269.49C864.339 269.919 843.322 278.214 818.302 288.081L772.837 306.1L764.973 298.234L757.252 290.512L765.545 271.35C775.696 248.04 784.703 229.735 786.705 228.448C788.85 227.161 818.159 223.872 846.896 221.727C849.327 221.584 849.47 222.442 848.755 236.17ZM949.98 238.029C956.986 249.613 959.845 256.334 964.849 273.352L971.14 294.373L963.705 302.954C959.559 307.816 955.27 311.677 954.126 311.677C951.982 311.677 927.104 299.521 901.083 285.65L885.07 277.213L888.359 268.346C891.933 258.908 894.078 256.906 895.65 261.768C896.508 264.199 896.937 264.485 897.938 262.912C899.939 259.766 899.511 254.761 896.079 240.604C894.363 233.31 893.506 226.875 894.078 226.303C895.507 224.873 915.095 223.443 929.964 223.586L941.259 223.729L949.98 238.029ZM1239.5 230.879C1239.5 232.309 1222.2 240.175 1220.91 239.46C1220.06 238.887 1219.48 236.742 1219.48 234.311V230.164H1229.49C1235.07 230.164 1239.5 230.45 1239.5 230.879ZM1272.81 238.315C1281.39 249.613 1322.42 308.531 1323.28 310.962C1324.14 312.821 1303.41 350.86 1300.84 352.576C1299.41 353.434 1185.46 313.536 1183.17 311.534C1182.31 310.819 1182.45 308.245 1183.45 304.956C1184.31 301.953 1186.31 294.802 1188.03 289.082L1191.03 278.786H1205.76C1217.05 278.786 1220.77 279.215 1221.34 280.788C1222.49 283.791 1245.22 296.089 1245.22 293.801C1245.22 293.372 1241.07 289.94 1236.07 285.936C1227.06 278.786 1226.92 278.643 1225.35 269.061C1224.34 263.77 1223.34 258.479 1222.92 257.049C1222.49 255.476 1224.06 253.76 1228.35 251.329C1231.92 249.327 1234.64 246.753 1235.21 244.608C1235.78 242.034 1238.79 240.175 1248.79 235.884C1255.94 232.881 1262.8 230.307 1264.09 230.307C1265.38 230.164 1269.38 233.882 1272.81 238.315ZM717.649 246.181C725.084 254.475 740.525 274.639 740.525 276.069C740.525 279.072 714.075 315.967 711.93 315.824C710.786 315.681 696.918 311.391 681.191 306.243L652.596 296.661L647.449 278.071C639.729 250.471 639.729 250.185 643.017 250.185C644.733 250.185 646.449 251.758 647.592 254.475C648.593 256.763 649.451 258.765 649.594 258.765C651.167 258.765 664.32 253.76 665.464 252.902C666.179 252.187 663.891 251.615 660.031 251.615C653.454 251.615 650.881 249.613 655.885 248.183C657.171 247.897 668.037 246.181 679.761 244.608C691.628 243.035 702.78 241.462 704.781 241.176C706.783 240.747 709.214 240.461 710.214 240.318C711.215 240.318 714.647 242.892 717.649 246.181ZM1124.69 256.191C1123.69 272.78 1124.69 272.494 1129.55 254.761C1131.27 248.326 1133.27 243.464 1133.84 244.036C1135.42 245.752 1142.14 287.938 1140.99 289.082C1139.85 290.369 1081.94 313.393 1081.51 312.821C1081.23 312.535 1077.8 302.096 1073.94 289.511C1070.08 276.927 1065.07 263.484 1062.93 259.766C1059.21 253.331 1059.21 252.759 1061.36 250.328C1064.22 247.182 1082.37 244.751 1122.83 241.748C1125.41 241.605 1125.55 242.463 1124.69 256.191ZM591.118 268.632C598.553 278.071 604.7 286.508 604.7 287.366C604.7 290.083 578.822 327.407 577.107 327.407C576.106 327.407 562.237 322.974 546.225 317.683L517.058 308.102L511.625 289.225C503.905 261.768 503.905 261.625 507.193 261.625C508.909 261.625 510.624 263.198 511.768 265.915C512.769 268.203 513.627 270.205 513.77 270.205C515.342 270.205 528.496 265.2 529.64 264.342C530.355 263.627 528.067 263.055 524.207 263.055C517.201 263.055 515.056 260.767 520.775 259.48C525.065 258.479 570.387 251.901 574.247 251.758C576.821 251.615 580.681 255.619 591.118 268.632ZM1389.05 268.918C1385.76 279.644 1386.05 281.36 1390.05 277.642C1393.48 274.353 1399.63 273.638 1409.78 275.354C1414.93 276.212 1414.93 276.212 1421.08 293.515C1424.36 302.954 1427.22 311.677 1427.37 312.821C1427.51 314.251 1415.36 317.826 1379.61 326.692L1331.72 338.562L1326.86 333.843L1322 329.123L1326.57 321.258C1331.86 311.963 1331.86 311.391 1328 305.957L1324.85 301.81L1334.43 286.937C1344.3 271.35 1345.59 270.205 1352.59 270.205C1356.45 270.205 1361.31 266.916 1362.6 263.484C1362.89 262.626 1369.32 261.053 1376.75 259.909C1392.34 257.621 1392.34 257.621 1389.05 268.918Z"/>
            </mask>
            <path d="M667.751 93.7378C644.733 105.035 625.146 114.33 624.145 114.33C623.287 114.33 612.993 107.609 601.126 99.315C589.402 91.0207 578.822 84.2995 577.536 84.2995C575.248 84.2995 455.151 142.073 452.72 144.361C452.005 144.933 456.152 150.797 461.728 157.232C470.449 167.099 472.736 168.815 475.596 168.243C477.598 167.957 479.313 168.386 479.599 169.244C479.885 170.102 486.033 187.835 493.039 208.571C500.187 229.449 505.763 246.61 505.334 247.039C505.048 247.325 502.618 248.04 500.044 248.612C496.47 249.47 495.469 250.328 495.755 252.473C496.613 257.192 510.481 307.959 511.625 310.247C512.769 312.392 572.96 332.985 578.25 332.985C581.968 333.128 612.707 288.081 610.705 285.507C609.99 284.506 598.982 270.205 586.114 253.76C573.246 237.171 560.951 221.441 558.806 218.581L554.803 213.433L564.096 203.136L573.532 192.983L569.958 188.264C567.956 185.833 564.382 181.4 562.095 178.683L557.805 173.677L545.51 179.684L533.214 185.833L523.349 173.248C517.916 166.384 513.913 160.378 514.342 159.949C515.342 158.948 559.807 150.082 563.667 150.082C565.526 150.082 565.812 151.083 565.097 155.373C564.239 160.092 564.525 160.521 566.956 159.52C568.385 158.948 577.25 157.375 586.4 156.088C599.41 154.372 603.843 154.229 606.416 155.516C608.275 156.374 610.848 157.089 612.135 156.803C614.28 156.517 617.139 163.667 628.148 196.129L641.73 235.884L637.87 236.742C631.007 238.172 630.293 238.744 631.007 241.176C631.436 242.606 635.011 255.619 639.014 270.205C643.16 284.792 646.877 297.662 647.449 298.806C648.593 300.951 709.071 321.687 714.075 321.544C716.219 321.544 720.937 315.681 731.66 299.807C739.667 287.795 746.244 277.07 746.244 275.783C746.244 274.639 735.378 259.909 722.224 242.892C709.071 226.017 696.489 209.858 694.344 206.997L690.341 201.849L699.777 191.696L709.214 181.4L702.351 172.676C698.634 167.957 694.773 163.81 693.915 163.381C692.915 163.095 687.053 165.383 680.619 168.529L669.181 174.392L659.173 161.808C653.74 154.944 649.737 148.938 650.166 148.366C651.167 147.365 695.488 138.641 699.491 138.641C701.35 138.641 701.636 139.642 700.921 143.789C700.063 148.652 700.206 148.938 703.352 147.937C705.21 147.365 714.361 145.791 723.797 144.361C738.523 142.216 741.382 141.358 743.67 138.498C745.958 135.495 746.53 135.352 748.102 137.354C748.96 138.498 751.677 141.644 753.821 144.361L757.824 149.081L773.837 148.08C782.702 147.651 795.14 146.793 801.717 146.221C809.295 145.648 813.441 145.934 813.441 146.793C813.441 147.651 799.858 179.112 783.274 216.722C766.689 254.475 752.534 286.794 751.82 288.51C750.676 291.513 751.677 293.086 760.112 301.81C765.259 307.244 770.692 311.677 772.122 311.677C774.695 311.677 869.057 274.925 871.059 273.066C872.203 272.065 864.482 217.151 862.766 214.434C862.338 213.576 860.622 213.004 859.192 213.004C856.905 213.004 856.476 212.146 857.048 209C857.334 206.854 858.334 197.13 859.192 187.263C861.337 162.38 861.623 161.522 865.626 161.522C867.485 161.522 869.343 162.094 869.772 162.809C870.773 164.382 893.649 252.044 893.22 252.187C888.93 253.76 886.643 257.192 882.926 267.631C880.495 274.496 878.779 280.359 879.208 280.645C879.637 281.074 896.937 289.797 917.668 300.236L955.413 319.113L964.277 310.247C978.289 296.375 978.003 298.091 969.996 272.065C963.419 250.9 961.99 247.611 945.977 220.154C936.54 203.994 928.534 190.123 928.105 189.408C927.819 188.55 939.114 199.561 953.411 213.719L979.289 239.46L983.722 237.028C988.726 234.168 987.868 232.738 992.872 252.616C997.018 269.347 997.161 271.636 994.444 271.636C992.3 271.636 983.579 292.085 983.579 296.947C983.579 298.806 993.301 304.384 1021.75 318.684L1059.93 337.847L1066.5 330.696C1070.08 326.692 1074.22 322.831 1075.8 322.116C1077.37 321.258 1093.81 314.68 1112.25 307.387C1130.7 300.236 1146.42 293.658 1147.14 293.086C1148.43 291.799 1141.71 241.891 1139.42 236.17C1138.7 234.454 1137.13 233.024 1135.84 233.024C1133.13 233.024 1133.13 228.305 1135.84 202.993C1136.99 192.411 1137.99 182.83 1137.99 181.829C1137.99 180.971 1139.28 180.113 1140.71 180.113C1143.57 180.113 1144.14 181.257 1145.85 189.694C1146.42 192.268 1147.43 194.699 1148.14 195.128C1149.28 195.843 1172.02 192.268 1189.89 188.407C1196.04 187.12 1196.61 186.691 1196.61 182.973C1196.61 179.684 1197.32 178.683 1200.9 177.968C1206.76 176.68 1208.05 177.825 1206.33 182.687C1205.19 185.69 1206.33 195.128 1212.19 228.019C1216.2 250.757 1219.48 270.348 1219.48 271.207C1219.48 272.637 1215.19 273.066 1203.04 273.066H1186.74L1183.74 283.076C1182.17 288.51 1179.59 297.662 1177.88 303.24C1175.88 310.247 1175.45 313.965 1176.45 314.966C1178.59 317.111 1301.12 360.155 1303.12 359.44C1304.12 359.011 1307.84 353.291 1311.56 346.713C1315.28 339.992 1318.85 334.558 1319.28 334.558C1319.71 334.558 1322.42 336.703 1325.28 339.42L1330.29 344.139L1382.19 331.411C1419.65 322.116 1433.94 317.969 1433.94 316.539C1433.94 313.965 1419.65 274.353 1417.79 271.922C1416.93 270.921 1412.78 270.205 1406.92 270.205C1401.77 270.205 1396.77 269.633 1395.77 269.061C1394.48 268.203 1394.91 265.057 1397.63 256.477L1401.06 244.894L1436.8 224.301C1468.4 206.139 1472.55 203.279 1472.55 200.133C1472.55 198.274 1470.26 188.693 1467.4 178.969L1462.25 161.236L1466.11 157.232L1469.97 153.228L1469.11 133.35C1468.54 122.482 1467.83 110.612 1467.4 106.751C1466.68 100.459 1466.25 100.03 1462.54 100.03C1459.68 100.03 1453.96 103.605 1442.81 112.185C1434.09 118.907 1426.51 125.056 1425.94 125.914C1425.51 126.772 1424.22 141.072 1423.22 157.661L1421.22 187.978L1407.49 201.134L1393.62 214.291L1388.33 212.146C1385.48 210.859 1375.47 206.711 1366.17 202.85C1356.88 198.989 1348.73 195.557 1348.3 195.128C1347.73 194.413 1350.88 184.26 1362.03 152.084C1362.31 151.226 1357.45 144.361 1351.3 137.068C1345.01 129.632 1339.01 121.624 1337.72 119.336C1336.58 116.905 1332.58 112.185 1329 108.753L1322.42 102.604L1312.85 105.178C1307.56 106.608 1302.12 108.896 1300.84 110.183C1299.12 111.899 1290.4 114.187 1274.96 117.191C1256.08 120.909 1251.22 122.339 1249.08 124.913L1246.51 128.059L1208.76 122.911C1187.89 120.051 1170.73 117.477 1170.44 117.048C1170.02 116.762 1168.87 114.473 1167.58 112.185C1165.58 108.038 1164.44 107.609 1142.14 102.747L1118.97 97.4559L1115.83 100.888L1112.83 104.177L1082.94 99.887L1053.06 95.4539L1050.92 98.6C1049.63 100.173 1042.48 113.472 1035.05 127.916L1021.61 154.229L1027.33 161.093L1033.19 167.957H1043.06C1048.49 167.957 1061.36 167.385 1071.79 166.813L1090.67 165.669L1079.23 191.839C1072.94 206.282 1065.07 224.301 1061.78 231.88C1058.5 239.603 1055.49 245.895 1054.92 245.895C1054.49 245.895 1044.06 228.448 1031.47 206.997L1008.88 168.1L1013.32 164.382C1015.89 162.237 1017.89 159.52 1017.89 158.09C1017.89 154.658 1003.88 91.5928 1002.31 87.7316C1001.31 85.4436 999.306 84.5855 993.444 83.8705C989.154 83.2985 985.151 83.5845 984.436 84.2995C983.722 85.0145 977.145 99.601 969.853 116.476L956.843 147.222L960.703 163.81C964.706 180.685 965.993 182.973 971.712 182.973C973.999 182.973 975.286 184.117 975.858 186.548C976.43 188.55 976.573 190.552 976.287 190.838C975.715 191.267 916.953 148.509 914.809 146.078C914.237 145.505 912.092 131.92 910.09 115.761C907.946 99.601 905.372 85.7296 904.515 84.7285C903.514 83.8705 899.368 82.1544 895.364 80.8674L887.787 78.7223L884.355 83.2985C882.497 85.8726 879.208 90.5917 877.064 93.8808C872.632 100.888 871.774 101.031 855.618 98.028C843.608 95.8829 842.035 95.1679 842.035 91.0207C842.035 89.3047 841.464 87.1596 840.892 86.1586C839.748 84.2995 778.412 75.1472 776.125 76.5773C775.41 77.0063 771.836 83.0125 768.404 90.0197C764.973 97.0269 761.542 103.033 760.97 103.319C760.398 103.748 749.818 97.0269 737.665 88.4467C725.512 79.8664 714.218 72.8592 712.645 73.0022C711.072 73.0022 690.913 82.4405 667.751 93.7378ZM1308.98 180.971C1308.56 185.404 1307.7 193.698 1307.27 199.275L1306.55 209.429L1330.29 225.159C1343.44 233.739 1354.59 241.605 1354.88 242.606C1355.31 243.607 1348.02 256.334 1338.72 271.064C1323.43 295.231 1321.71 297.376 1319.85 294.945C1318.85 293.515 1301.26 268.346 1280.68 239.03C1245.5 188.55 1243.5 185.404 1244.36 180.828L1245.36 175.822L1260.66 175.679C1273.96 175.536 1304.98 173.963 1308.7 173.248C1309.41 173.105 1309.56 176.537 1308.98 180.971ZM1046.63 243.607C1060.78 267.488 1062.36 270.921 1068.65 291.37L1075.51 313.393L1066.65 322.116L1057.78 330.982L1024.18 313.822C1005.74 304.384 990.298 296.232 989.869 295.803C989.583 295.231 990.727 290.941 992.443 286.079C995.731 276.784 998.591 275.068 1001.88 280.216C1006.31 287.366 1005.74 281.217 999.877 258.765C993.587 234.454 992.586 228.734 994.73 228.734C995.445 228.734 998.305 226.589 1001.02 223.872C1006.31 218.724 1009.46 218.009 1025.61 218.009H1031.19L1046.63 243.607ZM1380.19 218.438L1388.48 218.724L1386.19 222.299C1383.9 225.731 1383.04 230.164 1384.76 230.164C1385.19 230.164 1388.62 227.59 1392.48 224.301L1399.34 218.438L1414.93 219.439C1423.36 220.011 1430.51 220.583 1430.65 220.726C1431.08 221.155 1407.78 235.598 1404.78 236.742C1402.49 237.6 1402.2 237.314 1402.77 234.025C1403.49 230.307 1401.92 226.017 1400.34 227.59C1399.92 228.019 1398.34 233.31 1396.91 239.317C1395.48 245.323 1393.91 250.614 1393.48 251.186C1392.2 252.33 1359.45 257.478 1356.31 257.049C1354.16 256.62 1355.02 254.618 1361.6 244.608C1366.03 237.886 1369.61 232.023 1369.61 231.451C1369.61 228.305 1366.46 229.163 1363.74 233.024C1361.88 235.312 1359.88 237.314 1359.17 237.314C1358.45 237.314 1352.02 233.31 1344.87 228.305L1331.86 219.439L1336.72 218.724C1341.44 218.009 1361.46 218.009 1380.19 218.438ZM991.299 223.157C989.869 224.873 986.724 227.447 984.579 229.02L980.576 231.88L976.859 228.591C968.852 221.012 969.424 220.154 982.292 220.154H994.016L991.299 223.157ZM848.755 236.17L847.897 250.9L852.472 236.599C855.046 228.734 857.476 222.871 858.048 223.729C858.477 224.444 860.05 231.88 861.337 240.175C862.624 248.469 864.196 258.193 864.768 262.054C865.483 265.772 865.483 269.204 864.911 269.49C864.339 269.919 843.322 278.214 818.302 288.081L772.837 306.1L764.973 298.234L757.252 290.512L765.545 271.35C775.696 248.04 784.703 229.735 786.705 228.448C788.85 227.161 818.159 223.872 846.896 221.727C849.327 221.584 849.47 222.442 848.755 236.17ZM949.98 238.029C956.986 249.613 959.845 256.334 964.849 273.352L971.14 294.373L963.705 302.954C959.559 307.816 955.27 311.677 954.126 311.677C951.982 311.677 927.104 299.521 901.083 285.65L885.07 277.213L888.359 268.346C891.933 258.908 894.078 256.906 895.65 261.768C896.508 264.199 896.937 264.485 897.938 262.912C899.939 259.766 899.511 254.761 896.079 240.604C894.363 233.31 893.506 226.875 894.078 226.303C895.507 224.873 915.095 223.443 929.964 223.586L941.259 223.729L949.98 238.029ZM1239.5 230.879C1239.5 232.309 1222.2 240.175 1220.91 239.46C1220.06 238.887 1219.48 236.742 1219.48 234.311V230.164H1229.49C1235.07 230.164 1239.5 230.45 1239.5 230.879ZM1272.81 238.315C1281.39 249.613 1322.42 308.531 1323.28 310.962C1324.14 312.821 1303.41 350.86 1300.84 352.576C1299.41 353.434 1185.46 313.536 1183.17 311.534C1182.31 310.819 1182.45 308.245 1183.45 304.956C1184.31 301.953 1186.31 294.802 1188.03 289.082L1191.03 278.786H1205.76C1217.05 278.786 1220.77 279.215 1221.34 280.788C1222.49 283.791 1245.22 296.089 1245.22 293.801C1245.22 293.372 1241.07 289.94 1236.07 285.936C1227.06 278.786 1226.92 278.643 1225.35 269.061C1224.34 263.77 1223.34 258.479 1222.92 257.049C1222.49 255.476 1224.06 253.76 1228.35 251.329C1231.92 249.327 1234.64 246.753 1235.21 244.608C1235.78 242.034 1238.79 240.175 1248.79 235.884C1255.94 232.881 1262.8 230.307 1264.09 230.307C1265.38 230.164 1269.38 233.882 1272.81 238.315ZM717.649 246.181C725.084 254.475 740.525 274.639 740.525 276.069C740.525 279.072 714.075 315.967 711.93 315.824C710.786 315.681 696.918 311.391 681.191 306.243L652.596 296.661L647.449 278.071C639.729 250.471 639.729 250.185 643.017 250.185C644.733 250.185 646.449 251.758 647.592 254.475C648.593 256.763 649.451 258.765 649.594 258.765C651.167 258.765 664.32 253.76 665.464 252.902C666.179 252.187 663.891 251.615 660.031 251.615C653.454 251.615 650.881 249.613 655.885 248.183C657.171 247.897 668.037 246.181 679.761 244.608C691.628 243.035 702.78 241.462 704.781 241.176C706.783 240.747 709.214 240.461 710.214 240.318C711.215 240.318 714.647 242.892 717.649 246.181ZM1124.69 256.191C1123.69 272.78 1124.69 272.494 1129.55 254.761C1131.27 248.326 1133.27 243.464 1133.84 244.036C1135.42 245.752 1142.14 287.938 1140.99 289.082C1139.85 290.369 1081.94 313.393 1081.51 312.821C1081.23 312.535 1077.8 302.096 1073.94 289.511C1070.08 276.927 1065.07 263.484 1062.93 259.766C1059.21 253.331 1059.21 252.759 1061.36 250.328C1064.22 247.182 1082.37 244.751 1122.83 241.748C1125.41 241.605 1125.55 242.463 1124.69 256.191ZM591.118 268.632C598.553 278.071 604.7 286.508 604.7 287.366C604.7 290.083 578.822 327.407 577.107 327.407C576.106 327.407 562.237 322.974 546.225 317.683L517.058 308.102L511.625 289.225C503.905 261.768 503.905 261.625 507.193 261.625C508.909 261.625 510.624 263.198 511.768 265.915C512.769 268.203 513.627 270.205 513.77 270.205C515.342 270.205 528.496 265.2 529.64 264.342C530.355 263.627 528.067 263.055 524.207 263.055C517.201 263.055 515.056 260.767 520.775 259.48C525.065 258.479 570.387 251.901 574.247 251.758C576.821 251.615 580.681 255.619 591.118 268.632ZM1389.05 268.918C1385.76 279.644 1386.05 281.36 1390.05 277.642C1393.48 274.353 1399.63 273.638 1409.78 275.354C1414.93 276.212 1414.93 276.212 1421.08 293.515C1424.36 302.954 1427.22 311.677 1427.37 312.821C1427.51 314.251 1415.36 317.826 1379.61 326.692L1331.72 338.562L1326.86 333.843L1322 329.123L1326.57 321.258C1331.86 311.963 1331.86 311.391 1328 305.957L1324.85 301.81L1334.43 286.937C1344.3 271.35 1345.59 270.205 1352.59 270.205C1356.45 270.205 1361.31 266.916 1362.6 263.484C1362.89 262.626 1369.32 261.053 1376.75 259.909C1392.34 257.621 1392.34 257.621 1389.05 268.918Z" stroke="black" stroke-width="10" mask="url(#path-2-outside-2_8_13)"/>
        </g>
    </g>
    <defs>
        <filter id="filter0_d_8_13" x="0" y="0" width="1497.55" height="442.449" filterUnits="userSpaceOnUse" color-interpolation-filters="sRGB">
            <feFlood flood-opacity="0" result="BackgroundImageFix"/>
            <feColorMatrix in="SourceAlpha" type="matrix" values="0 0 0 0 0 0 0 0 0 0 0 0 0 0 0 0 0 0 127 0" result="hardAlpha"/>
            <feOffset dx="5" dy="5"/>
            <feGaussianBlur stdDeviation="10"/>
            <feColorMatrix type="matrix" values="0 0 0 0 1 0 0 0 0 1 0 0 0 0 1 0 0 0 1 0"/>
            <feBlend mode="normal" in2="BackgroundImageFix" result="effect1_dropShadow_8_13"/>
            <feBlend mode="normal" in="SourceGraphic" in2="effect1_dropShadow_8_13" result="shape"/>
        </filter>
        <clipPath id="clip0_8_13">
            <rect width="1457.55" height="402.449" fill="white" transform="translate(15 15)"/>
        </clipPath>
    </defs>
</svg>
